<svg width="30" height="31" viewBox="0 0 30 31" fill="none" xmlns="http://www.w3.org/2000/svg">
<g filter="url(#filter0_d_417_1898)">
<g clip-path="url(#clip0_417_1898)">
<rect x="4" y="2.5813" width="22" height="22" rx="11" fill="white"/>
<path d="M10.6459 20.9146C10.6459 20.7313 10.6917 20.548 10.8292 20.4105L17.7042 13.5813L10.8292 6.75212C10.5542 6.47712 10.5542 6.06462 10.8292 5.78962C11.1042 5.51462 11.5167 5.51462 11.7917 5.78962L19.125 13.123C19.4 13.398 19.4 13.8105 19.125 14.0855L11.7917 21.4188C11.5167 21.6938 11.1042 21.6938 10.8292 21.4188C10.6917 21.2813 10.6459 21.098 10.6459 20.9146Z" fill="#8E8E8E"/>
</g>
</g>
<defs>
<filter id="filter0_d_417_1898" x="0" y="0.581299" width="30" height="30" filterUnits="userSpaceOnUse" color-interpolation-filters="sRGB">
<feFlood flood-opacity="0" result="BackgroundImageFix"/>
<feColorMatrix in="SourceAlpha" type="matrix" values="0 0 0 0 0 0 0 0 0 0 0 0 0 0 0 0 0 0 127 0" result="hardAlpha"/>
<feOffset dy="2"/>
<feGaussianBlur stdDeviation="2"/>
<feComposite in2="hardAlpha" operator="out"/>
<feColorMatrix type="matrix" values="0 0 0 0 0 0 0 0 0 0 0 0 0 0 0 0 0 0 0.25 0"/>
<feBlend mode="normal" in2="BackgroundImageFix" result="effect1_dropShadow_417_1898"/>
<feBlend mode="normal" in="SourceGraphic" in2="effect1_dropShadow_417_1898" result="shape"/>
</filter>
<clipPath id="clip0_417_1898">
<rect x="4" y="2.5813" width="22" height="22" rx="11" fill="white"/>
</clipPath>
</defs>
</svg>
