<svg width="40" height="40" viewBox="0 0 40 40" fill="none" xmlns="http://www.w3.org/2000/svg">
<rect width="40" height="40" fill="#FAFAFA" fill-opacity="0.01"/>
<path d="M19.3788 11.9146L20.0433 12.6904L20.7855 11.9146C23.3973 9.30566 27.4469 9.42701 30.1324 11.9146L30.3216 12.0966C32.9333 14.7056 32.2934 19.9203 29.8031 22.6029L29.4755 22.9487L29.1108 23.3202C27.7056 24.7299 20.992 30.4983 20.992 30.4983C20.42 30.9738 19.5877 30.9664 19.0244 30.4807L16.9785 28.7067L15.1569 27.1059C12.9917 25.188 11.3665 23.687 10.2812 22.6029C7.60727 19.9318 7.09266 14.7677 9.76662 12.0966C12.4406 9.42556 16.7049 9.24354 19.3788 11.9146Z" fill="#262626"/>
</svg>
