<svg width="32" height="41" viewBox="0 0 32 41" fill="none" xmlns="http://www.w3.org/2000/svg">
<g clip-path="url(#clip0_417_1935)">
<path d="M29.75 32.5813C29.55 32.5813 29.35 32.4813 29.2 32.3813L20 23.0813L10.8 32.3813C10.6 32.5813 10.25 32.6813 10 32.5313C9.7 32.4313 9.5 32.1313 9.5 31.8313V9.3313C9.5 8.9313 9.85 8.5813 10.25 8.5813H29.75C30.15 8.5813 30.5 8.9313 30.5 9.3313V31.8313C30.5 32.1313 30.3 32.4313 30.05 32.5313C29.95 32.5813 29.85 32.5813 29.75 32.5813ZM20 21.5813C20.4 21.5813 20.8 21.7313 21.1 22.0313L29 30.0313V10.0813H11V30.0313L18.9 22.0313C19.2 21.7313 19.6 21.5813 20 21.5813Z" fill="#262626"/>
</g>
<defs>
<clipPath id="clip0_417_1935">
<rect width="24" height="24" fill="white" transform="translate(8 8.5813)"/>
</clipPath>
</defs>
</svg>
